<mxfile host="app.diagrams.net" agent="Mozilla/5.0 (X11; Linux x86_64; rv:138.0) Gecko/20100101 Firefox/138.0" version="28.2.4">
  <diagram name="Page-1" id="rfvgk1_Xvf7W-zRy6Osu">
    <mxGraphModel dx="325" dy="554" grid="1" gridSize="10" guides="1" tooltips="1" connect="1" arrows="1" fold="1" page="1" pageScale="1" pageWidth="850" pageHeight="1100" math="0" shadow="0">
      <root>
        <mxCell id="0" />
        <mxCell id="1" parent="0" />
        <mxCell id="4Z2WuEY1jLkkA-Q5fhWf-1" value="Employee" style="shape=umlActor;verticalLabelPosition=bottom;verticalAlign=top;html=1;outlineConnect=0;fillColor=#FFFFFF;" vertex="1" parent="1">
          <mxGeometry x="80" y="180" width="30" height="60" as="geometry" />
        </mxCell>
        <mxCell id="4Z2WuEY1jLkkA-Q5fhWf-2" value="" style="endArrow=none;html=1;" edge="1" parent="1">
          <mxGeometry width="50" height="50" relative="1" as="geometry">
            <mxPoint x="110" y="212" as="sourcePoint" />
            <mxPoint x="200" y="212" as="targetPoint" />
          </mxGeometry>
        </mxCell>
        <mxCell id="4Z2WuEY1jLkkA-Q5fhWf-4" value="Input Password" style="ellipse;whiteSpace=wrap;html=1;fillColor=#FFFFFF;fontColor=light-dark(#000000,#000000);" vertex="1" parent="1">
          <mxGeometry x="200" y="170" width="120" height="80" as="geometry" />
        </mxCell>
        <mxCell id="4Z2WuEY1jLkkA-Q5fhWf-5" value="Input Masking" style="ellipse;whiteSpace=wrap;html=1;fillColor=#FFFFFF;fontColor=light-dark(#000000,#000000);" vertex="1" parent="1">
          <mxGeometry x="320" y="320" width="120" height="80" as="geometry" />
        </mxCell>
        <mxCell id="4Z2WuEY1jLkkA-Q5fhWf-6" value="" style="endArrow=none;dashed=1;html=1;entryX=0;entryY=0.5;entryDx=0;entryDy=0;edgeStyle=orthogonalEdgeStyle;curved=1;endFill=0;strokeWidth=1;exitX=0.708;exitY=0.971;exitDx=0;exitDy=0;exitPerimeter=0;startArrow=open;startFill=0;" edge="1" parent="1" source="4Z2WuEY1jLkkA-Q5fhWf-4" target="4Z2WuEY1jLkkA-Q5fhWf-5">
          <mxGeometry width="50" height="50" relative="1" as="geometry">
            <mxPoint x="180" y="340" as="sourcePoint" />
            <mxPoint x="170" y="320" as="targetPoint" />
          </mxGeometry>
        </mxCell>
        <mxCell id="4Z2WuEY1jLkkA-Q5fhWf-8" style="edgeStyle=orthogonalEdgeStyle;rounded=0;orthogonalLoop=1;jettySize=auto;html=1;entryX=1;entryY=0.5;entryDx=0;entryDy=0;endArrow=none;endFill=0;" edge="1" parent="1" source="4Z2WuEY1jLkkA-Q5fhWf-9">
          <mxGeometry relative="1" as="geometry">
            <mxPoint x="660" y="210" as="targetPoint" />
          </mxGeometry>
        </mxCell>
        <mxCell id="4Z2WuEY1jLkkA-Q5fhWf-9" value="Rouge Employee" style="shape=umlActor;verticalLabelPosition=bottom;verticalAlign=top;html=1;outlineConnect=0;fillColor=#000000;" vertex="1" parent="1">
          <mxGeometry x="760" y="180" width="30" height="60" as="geometry" />
        </mxCell>
        <mxCell id="4Z2WuEY1jLkkA-Q5fhWf-10" style="edgeStyle=orthogonalEdgeStyle;curved=1;rounded=0;orthogonalLoop=1;jettySize=auto;html=1;entryX=1;entryY=0.5;entryDx=0;entryDy=0;dashed=1;endArrow=open;endFill=0;strokeWidth=1;" edge="1" parent="1" source="4Z2WuEY1jLkkA-Q5fhWf-12">
          <mxGeometry relative="1" as="geometry">
            <mxPoint x="320" y="210" as="targetPoint" />
          </mxGeometry>
        </mxCell>
        <mxCell id="4Z2WuEY1jLkkA-Q5fhWf-11" value="&amp;lt;&amp;lt;Threatens&amp;gt;&amp;gt;" style="edgeLabel;html=1;align=center;verticalAlign=middle;resizable=0;points=[];" vertex="1" connectable="0" parent="4Z2WuEY1jLkkA-Q5fhWf-10">
          <mxGeometry x="0.1143" y="1" relative="1" as="geometry">
            <mxPoint y="9" as="offset" />
          </mxGeometry>
        </mxCell>
        <mxCell id="4Z2WuEY1jLkkA-Q5fhWf-12" value="Shoulder-Surf" style="ellipse;whiteSpace=wrap;html=1;fillColor=#000000;fontColor=#FFFFFF;" vertex="1" parent="1">
          <mxGeometry x="540" y="170" width="120" height="80" as="geometry" />
        </mxCell>
        <mxCell id="4Z2WuEY1jLkkA-Q5fhWf-13" style="edgeStyle=orthogonalEdgeStyle;curved=1;rounded=0;orthogonalLoop=1;jettySize=auto;html=1;dashed=1;endArrow=open;endFill=0;strokeWidth=1;exitX=1;exitY=0.5;exitDx=0;exitDy=0;entryX=0.5;entryY=1;entryDx=0;entryDy=0;" edge="1" parent="1" source="4Z2WuEY1jLkkA-Q5fhWf-5" target="4Z2WuEY1jLkkA-Q5fhWf-12">
          <mxGeometry relative="1" as="geometry">
            <mxPoint x="430" y="280" as="targetPoint" />
            <mxPoint x="440" y="350" as="sourcePoint" />
          </mxGeometry>
        </mxCell>
        <mxCell id="4Z2WuEY1jLkkA-Q5fhWf-14" value="&amp;lt;&amp;lt;Prevents&amp;gt;&amp;gt;" style="edgeLabel;html=1;align=center;verticalAlign=middle;resizable=0;points=[];" vertex="1" connectable="0" parent="4Z2WuEY1jLkkA-Q5fhWf-13">
          <mxGeometry x="-0.2286" y="23" relative="1" as="geometry">
            <mxPoint x="-2" y="-7" as="offset" />
          </mxGeometry>
        </mxCell>
        <mxCell id="4Z2WuEY1jLkkA-Q5fhWf-17" value="Malicious Script" style="ellipse;whiteSpace=wrap;html=1;fillColor=#000000;fontColor=#FFFFFF;" vertex="1" parent="1">
          <mxGeometry x="600" y="400" width="120" height="80" as="geometry" />
        </mxCell>
        <mxCell id="4Z2WuEY1jLkkA-Q5fhWf-18" style="edgeStyle=orthogonalEdgeStyle;rounded=0;orthogonalLoop=1;jettySize=auto;html=1;endArrow=none;endFill=0;exitX=0.5;exitY=0.5;exitDx=0;exitDy=0;exitPerimeter=0;entryX=0.5;entryY=0;entryDx=0;entryDy=0;" edge="1" parent="1">
          <mxGeometry relative="1" as="geometry">
            <mxPoint x="660" y="400" as="targetPoint" />
            <mxPoint x="775" y="210" as="sourcePoint" />
            <Array as="points">
              <mxPoint x="720" y="210" />
              <mxPoint x="720" y="400" />
            </Array>
          </mxGeometry>
        </mxCell>
        <mxCell id="4Z2WuEY1jLkkA-Q5fhWf-19" style="edgeStyle=orthogonalEdgeStyle;curved=1;rounded=0;orthogonalLoop=1;jettySize=auto;html=1;dashed=1;endArrow=open;endFill=0;strokeWidth=1;exitX=0;exitY=0.5;exitDx=0;exitDy=0;entryX=0.5;entryY=1;entryDx=0;entryDy=0;" edge="1" parent="1" source="4Z2WuEY1jLkkA-Q5fhWf-17" target="4Z2WuEY1jLkkA-Q5fhWf-5">
          <mxGeometry relative="1" as="geometry">
            <mxPoint x="450" y="510" as="targetPoint" />
            <mxPoint x="670" y="510" as="sourcePoint" />
            <Array as="points">
              <mxPoint x="380" y="440" />
            </Array>
          </mxGeometry>
        </mxCell>
        <mxCell id="4Z2WuEY1jLkkA-Q5fhWf-20" value="&amp;lt;&amp;lt;Threatens&amp;gt;&amp;gt;" style="edgeLabel;html=1;align=center;verticalAlign=middle;resizable=0;points=[];" vertex="1" connectable="0" parent="4Z2WuEY1jLkkA-Q5fhWf-19">
          <mxGeometry x="0.1143" y="1" relative="1" as="geometry">
            <mxPoint x="35" y="-11" as="offset" />
          </mxGeometry>
        </mxCell>
        <mxCell id="4Z2WuEY1jLkkA-Q5fhWf-21" value="Content Security Policy enforcement" style="ellipse;whiteSpace=wrap;html=1;fillColor=#FFFFFF;fontColor=light-dark(#000000,#000000);" vertex="1" parent="1">
          <mxGeometry x="320" y="480" width="120" height="80" as="geometry" />
        </mxCell>
        <mxCell id="4Z2WuEY1jLkkA-Q5fhWf-22" value="" style="endArrow=open;dashed=1;html=1;entryX=0;entryY=0.5;entryDx=0;entryDy=0;edgeStyle=orthogonalEdgeStyle;curved=1;endFill=0;strokeWidth=1;exitX=0.292;exitY=0.988;exitDx=0;exitDy=0;exitPerimeter=0;" edge="1" parent="1" source="4Z2WuEY1jLkkA-Q5fhWf-4" target="4Z2WuEY1jLkkA-Q5fhWf-21">
          <mxGeometry width="50" height="50" relative="1" as="geometry">
            <mxPoint x="150" y="380" as="sourcePoint" />
            <mxPoint x="185" y="492" as="targetPoint" />
          </mxGeometry>
        </mxCell>
        <mxCell id="4Z2WuEY1jLkkA-Q5fhWf-23" value="&amp;lt;&amp;lt;Includes&amp;gt;&amp;gt;" style="edgeLabel;html=1;align=center;verticalAlign=middle;resizable=0;points=[];" vertex="1" connectable="0" parent="1">
          <mxGeometry x="250" y="430" as="geometry" />
        </mxCell>
        <mxCell id="4Z2WuEY1jLkkA-Q5fhWf-24" value="&amp;lt;&amp;lt;Extends&amp;gt;&amp;gt;" style="edgeLabel;html=1;align=center;verticalAlign=middle;resizable=0;points=[];" vertex="1" connectable="0" parent="1">
          <mxGeometry x="290" y="300" as="geometry" />
        </mxCell>
        <mxCell id="4Z2WuEY1jLkkA-Q5fhWf-26" style="edgeStyle=orthogonalEdgeStyle;curved=1;rounded=0;orthogonalLoop=1;jettySize=auto;html=1;dashed=1;endArrow=open;endFill=0;strokeWidth=1;exitX=1;exitY=0.5;exitDx=0;exitDy=0;entryX=0.5;entryY=1;entryDx=0;entryDy=0;" edge="1" parent="1" source="4Z2WuEY1jLkkA-Q5fhWf-21" target="4Z2WuEY1jLkkA-Q5fhWf-17">
          <mxGeometry relative="1" as="geometry">
            <mxPoint x="710" y="400" as="targetPoint" />
            <mxPoint x="550" y="510" as="sourcePoint" />
          </mxGeometry>
        </mxCell>
        <mxCell id="4Z2WuEY1jLkkA-Q5fhWf-27" value="&amp;lt;&amp;lt;Prevents&amp;gt;&amp;gt;" style="edgeLabel;html=1;align=center;verticalAlign=middle;resizable=0;points=[];" vertex="1" connectable="0" parent="4Z2WuEY1jLkkA-Q5fhWf-26">
          <mxGeometry x="-0.2286" y="23" relative="1" as="geometry">
            <mxPoint x="10" y="23" as="offset" />
          </mxGeometry>
        </mxCell>
        <mxCell id="4Z2WuEY1jLkkA-Q5fhWf-28" value="Malicious Script on Allowed Domain" style="ellipse;whiteSpace=wrap;html=1;fillColor=#000000;fontColor=#FFFFFF;" vertex="1" parent="1">
          <mxGeometry x="670" y="580" width="120" height="80" as="geometry" />
        </mxCell>
        <mxCell id="4Z2WuEY1jLkkA-Q5fhWf-29" style="edgeStyle=orthogonalEdgeStyle;curved=1;rounded=0;orthogonalLoop=1;jettySize=auto;html=1;dashed=1;endArrow=open;endFill=0;strokeWidth=1;exitX=0.5;exitY=0;exitDx=0;exitDy=0;entryX=0.846;entryY=0.92;entryDx=0;entryDy=0;entryPerimeter=0;" edge="1" parent="1" source="4Z2WuEY1jLkkA-Q5fhWf-28" target="4Z2WuEY1jLkkA-Q5fhWf-17">
          <mxGeometry relative="1" as="geometry">
            <mxPoint x="550" y="490" as="targetPoint" />
            <mxPoint x="770" y="530" as="sourcePoint" />
            <Array as="points">
              <mxPoint x="730" y="474" />
            </Array>
          </mxGeometry>
        </mxCell>
        <mxCell id="4Z2WuEY1jLkkA-Q5fhWf-30" value="&amp;lt;&amp;lt;Includes&amp;gt;&amp;gt;" style="edgeLabel;html=1;align=center;verticalAlign=middle;resizable=0;points=[];" vertex="1" connectable="0" parent="4Z2WuEY1jLkkA-Q5fhWf-29">
          <mxGeometry x="0.1143" y="1" relative="1" as="geometry">
            <mxPoint x="1" y="15" as="offset" />
          </mxGeometry>
        </mxCell>
        <mxCell id="4Z2WuEY1jLkkA-Q5fhWf-31" style="edgeStyle=orthogonalEdgeStyle;curved=1;rounded=0;orthogonalLoop=1;jettySize=auto;html=1;dashed=1;endArrow=open;endFill=0;strokeWidth=1;exitX=0;exitY=0.5;exitDx=0;exitDy=0;entryX=0.841;entryY=0.928;entryDx=0;entryDy=0;entryPerimeter=0;" edge="1" parent="1" source="4Z2WuEY1jLkkA-Q5fhWf-28" target="4Z2WuEY1jLkkA-Q5fhWf-21">
          <mxGeometry relative="1" as="geometry">
            <mxPoint x="440" y="610" as="targetPoint" />
            <mxPoint x="660" y="650" as="sourcePoint" />
            <Array as="points">
              <mxPoint x="670" y="560" />
              <mxPoint x="440" y="560" />
              <mxPoint x="440" y="554" />
            </Array>
          </mxGeometry>
        </mxCell>
        <mxCell id="4Z2WuEY1jLkkA-Q5fhWf-32" value="&amp;lt;&amp;lt;Threatens&amp;gt;&amp;gt;" style="edgeLabel;html=1;align=center;verticalAlign=middle;resizable=0;points=[];" vertex="1" connectable="0" parent="4Z2WuEY1jLkkA-Q5fhWf-31">
          <mxGeometry x="0.1143" y="1" relative="1" as="geometry">
            <mxPoint x="25" y="-1" as="offset" />
          </mxGeometry>
        </mxCell>
        <mxCell id="4Z2WuEY1jLkkA-Q5fhWf-33" value="Verify file hash" style="ellipse;whiteSpace=wrap;html=1;fillColor=#FFFFFF;fontColor=light-dark(#000000,#000000);" vertex="1" parent="1">
          <mxGeometry x="320" y="650" width="120" height="80" as="geometry" />
        </mxCell>
        <mxCell id="4Z2WuEY1jLkkA-Q5fhWf-35" style="edgeStyle=orthogonalEdgeStyle;curved=1;rounded=0;orthogonalLoop=1;jettySize=auto;html=1;dashed=1;endArrow=open;endFill=0;strokeWidth=1;exitX=0.5;exitY=0;exitDx=0;exitDy=0;entryX=0.5;entryY=1;entryDx=0;entryDy=0;" edge="1" parent="1" source="4Z2WuEY1jLkkA-Q5fhWf-33" target="4Z2WuEY1jLkkA-Q5fhWf-21">
          <mxGeometry relative="1" as="geometry">
            <mxPoint x="260" y="530" as="targetPoint" />
            <mxPoint x="288" y="636" as="sourcePoint" />
            <Array as="points">
              <mxPoint x="380" y="600" />
              <mxPoint x="380" y="600" />
            </Array>
          </mxGeometry>
        </mxCell>
        <mxCell id="4Z2WuEY1jLkkA-Q5fhWf-36" value="&amp;lt;&amp;lt;Includes&amp;gt;&amp;gt;" style="edgeLabel;html=1;align=center;verticalAlign=middle;resizable=0;points=[];" vertex="1" connectable="0" parent="4Z2WuEY1jLkkA-Q5fhWf-35">
          <mxGeometry x="0.1143" y="1" relative="1" as="geometry">
            <mxPoint x="1" y="15" as="offset" />
          </mxGeometry>
        </mxCell>
        <mxCell id="4Z2WuEY1jLkkA-Q5fhWf-37" style="edgeStyle=orthogonalEdgeStyle;curved=1;rounded=0;orthogonalLoop=1;jettySize=auto;html=1;dashed=1;endArrow=open;endFill=0;strokeWidth=1;exitX=1;exitY=0.5;exitDx=0;exitDy=0;entryX=0.5;entryY=1;entryDx=0;entryDy=0;" edge="1" parent="1" source="4Z2WuEY1jLkkA-Q5fhWf-33" target="4Z2WuEY1jLkkA-Q5fhWf-28">
          <mxGeometry relative="1" as="geometry">
            <mxPoint x="620" y="600" as="targetPoint" />
            <mxPoint x="460" y="710" as="sourcePoint" />
          </mxGeometry>
        </mxCell>
        <mxCell id="4Z2WuEY1jLkkA-Q5fhWf-38" value="&amp;lt;&amp;lt;Prevents&amp;gt;&amp;gt;" style="edgeLabel;html=1;align=center;verticalAlign=middle;resizable=0;points=[];" vertex="1" connectable="0" parent="4Z2WuEY1jLkkA-Q5fhWf-37">
          <mxGeometry x="-0.2286" y="23" relative="1" as="geometry">
            <mxPoint x="26" y="23" as="offset" />
          </mxGeometry>
        </mxCell>
      </root>
    </mxGraphModel>
  </diagram>
</mxfile>
